<svg width="22" height="37" viewBox="0 0 22 37" fill="none" xmlns="http://www.w3.org/2000/svg">
<path d="M1.22332 19.7203L18.6389 36.3141C18.9295 36.5911 19.3156 36.7456 19.7171 36.7456C20.1185 36.7456 20.5046 36.5911 20.7952 36.3141L20.8139 36.2953C20.9553 36.161 21.0679 35.9994 21.1448 35.8202C21.2217 35.641 21.2614 35.4481 21.2614 35.2531C21.2614 35.0581 21.2217 34.8652 21.1448 34.686C21.0679 34.5069 20.9553 34.3452 20.8139 34.2109L4.41394 18.5859L20.8139 2.96718C20.9553 2.83289 21.0679 2.67124 21.1448 2.49208C21.2217 2.31291 21.2614 2.11998 21.2614 1.92499C21.2614 1.73001 21.2217 1.53707 21.1448 1.35791C21.0679 1.17874 20.9553 1.0171 20.8139 0.882808L20.7952 0.864055C20.5046 0.587039 20.1185 0.432506 19.7171 0.432506C19.3156 0.432506 18.9295 0.587039 18.6389 0.864055L1.22332 17.4578C1.07016 17.6037 0.948222 17.7792 0.864907 17.9737C0.781592 18.1682 0.738631 18.3775 0.738631 18.5891C0.738631 18.8006 0.781592 19.01 0.864907 19.2044C0.948222 19.3989 1.07016 19.5744 1.22332 19.7203Z" fill="white"/>
</svg>
