<svg width="865" height="728" viewBox="0 0 865 728" fill="none" xmlns="http://www.w3.org/2000/svg">
<path d="M784.012 112H648.012L615.612 21.2C613.374 14.9868 609.272 9.61618 603.866 5.82176C598.461 2.02734 592.016 -0.00582618 585.412 1.25403e-05H278.612C265.112 1.25403e-05 253.012 8.50001 248.512 21.2L216.012 112H80.0122C35.8122 112 0.012207 147.8 0.012207 192V648C0.012207 692.2 35.8122 728 80.0122 728H784.012C828.212 728 864.012 692.2 864.012 648V192C864.012 147.8 828.212 112 784.012 112ZM432.012 568C343.612 568 272.012 496.4 272.012 408C272.012 319.6 343.612 248 432.012 248C520.412 248 592.012 319.6 592.012 408C592.012 496.4 520.412 568 432.012 568ZM336.012 408C336.012 433.461 346.126 457.879 364.13 475.882C382.133 493.886 406.551 504 432.012 504C457.473 504 481.891 493.886 499.894 475.882C517.898 457.879 528.012 433.461 528.012 408C528.012 382.539 517.898 358.121 499.894 340.118C481.891 322.114 457.473 312 432.012 312C406.551 312 382.133 322.114 364.13 340.118C346.126 358.121 336.012 382.539 336.012 408Z" fill="#A9A9A9"/>
</svg>
