<svg width="865" height="728" viewBox="0 0 865 728" fill="none" xmlns="http://www.w3.org/2000/svg">
<path d="M784.657 112H648.657L616.257 21.2C614.019 14.9868 609.917 9.61618 604.511 5.82176C599.106 2.02734 592.661 -0.00582618 586.057 1.25403e-05H279.257C265.757 1.25403e-05 253.657 8.50001 249.157 21.2L216.657 112H80.6572C36.4572 112 0.657227 147.8 0.657227 192V648C0.657227 692.2 36.4572 728 80.6572 728H784.657C828.857 728 864.657 692.2 864.657 648V192C864.657 147.8 828.857 112 784.657 112ZM432.657 568C344.257 568 272.657 496.4 272.657 408C272.657 319.6 344.257 248 432.657 248C521.057 248 592.657 319.6 592.657 408C592.657 496.4 521.057 568 432.657 568ZM336.657 408C336.657 433.461 346.771 457.879 364.775 475.882C382.778 493.886 407.196 504 432.657 504C458.118 504 482.536 493.886 500.539 475.882C518.543 457.879 528.657 433.461 528.657 408C528.657 382.539 518.543 358.121 500.539 340.118C482.536 322.114 458.118 312 432.657 312C407.196 312 382.778 322.114 364.775 340.118C346.771 358.121 336.657 382.539 336.657 408Z" fill="#425CFF"/>
</svg>
