<svg width="20" height="20" viewBox="0 0 20 20" fill="none" xmlns="http://www.w3.org/2000/svg">
<path fill-rule="evenodd" clip-rule="evenodd" d="M10 0.25C4.615 0.25 0.25 4.615 0.25 10C0.25 15.385 4.615 19.75 10 19.75C15.385 19.75 19.75 15.385 19.75 10C19.75 4.615 15.385 0.25 10 0.25ZM7.375 6.25C6.835 6.25 6.547 6.669 6.439 6.884C6.3107 7.15445 6.24604 7.45069 6.25 7.75C6.25 8.048 6.309 8.355 6.439 8.616C6.547 8.831 6.834 9.25 7.375 9.25C7.915 9.25 8.203 8.831 8.311 8.616C8.441 8.356 8.5 8.048 8.5 7.75C8.5 7.452 8.441 7.145 8.311 6.884C8.203 6.669 7.916 6.25 7.375 6.25ZM11.689 6.884C11.797 6.669 12.084 6.25 12.625 6.25C13.165 6.25 13.453 6.669 13.561 6.884C13.691 7.144 13.75 7.452 13.75 7.75C13.75 8.048 13.691 8.355 13.561 8.616C13.453 8.831 13.166 9.25 12.625 9.25C12.085 9.25 11.797 8.831 11.689 8.616C11.5607 8.34555 11.496 8.04931 11.5 7.75C11.5 7.452 11.559 7.145 11.689 6.884ZM13.712 13.712C13.7857 13.6433 13.8448 13.5605 13.8858 13.4685C13.9268 13.3765 13.9488 13.2772 13.9506 13.1765C13.9524 13.0758 13.9338 12.9758 13.8961 12.8824C13.8584 12.789 13.8023 12.7042 13.731 12.633C13.6598 12.5617 13.575 12.5056 13.4816 12.4679C13.3882 12.4302 13.2882 12.4116 13.1875 12.4134C13.0868 12.4152 12.9875 12.4372 12.8955 12.4782C12.8035 12.5192 12.7207 12.5783 12.652 12.652C12.3038 13.0003 11.8903 13.2766 11.4353 13.4652C10.9803 13.6537 10.4925 13.7507 10 13.7507C9.50746 13.7507 9.01974 13.6537 8.56471 13.4652C8.10967 13.2766 7.69623 13.0003 7.348 12.652C7.20582 12.5195 7.01778 12.4474 6.82348 12.4508C6.62918 12.4543 6.44379 12.533 6.30638 12.6704C6.16897 12.8078 6.09025 12.9932 6.08683 13.1875C6.0834 13.3818 6.15552 13.5698 6.288 13.712C7.27254 14.6964 8.60777 15.2494 10 15.2494C11.3922 15.2494 12.7275 14.6964 13.712 13.712V13.712Z" fill="#425CFF"/>
</svg>
