<svg width="13" height="13" viewBox="0 0 13 13" fill="none" xmlns="http://www.w3.org/2000/svg">
<g clip-path="url(#clip0_27_100)">
<path d="M11.375 11.375L8.94509 8.94073L11.375 11.375ZM10.2917 5.68748C10.2917 6.90858 9.8066 8.07967 8.94315 8.94312C8.0797 9.80657 6.90861 10.2916 5.68751 10.2916C4.46641 10.2916 3.29532 9.80657 2.43187 8.94312C1.56842 8.07967 1.08334 6.90858 1.08334 5.68748C1.08334 4.46638 1.56842 3.29529 2.43187 2.43184C3.29532 1.56839 4.46641 1.08331 5.68751 1.08331C6.90861 1.08331 8.0797 1.56839 8.94315 2.43184C9.8066 3.29529 10.2917 4.46638 10.2917 5.68748V5.68748Z" stroke="white" stroke-width="2" stroke-linecap="round"/>
</g>
<defs>
<clipPath id="clip0_27_100">
<rect width="13" height="13" fill="white"/>
</clipPath>
</defs>
</svg>
