<svg width="16" height="20" viewBox="0 0 16 20" fill="none" xmlns="http://www.w3.org/2000/svg">
<path d="M10 0H2C1.46957 0 0.960859 0.210714 0.585786 0.585786C0.210714 0.960859 0 1.46957 0 2V18C0 18.5304 0.210714 19.0391 0.585786 19.4142C0.960859 19.7893 1.46957 20 2 20H14C14.5304 20 15.0391 19.7893 15.4142 19.4142C15.7893 19.0391 16 18.5304 16 18V6L10 0ZM7.333 15.772C6.89754 15.9161 6.44264 15.993 5.984 16C5.247 16 4.713 15.814 4.34 15.454C3.969 15.106 3.765 14.579 3.771 13.985C3.777 12.641 4.754 11.874 6.08 11.874C6.601 11.874 7.004 11.977 7.201 12.072L7.01 12.803C6.788 12.707 6.512 12.629 6.069 12.629C5.307 12.629 4.731 13.061 4.731 13.937C4.731 14.77 5.253 15.262 6.002 15.262C6.212 15.262 6.38 15.238 6.452 15.201V14.355H5.828V13.642H7.333V15.772V15.772ZM8.967 15.958H8.049V11.916H8.967V15.958ZM12.229 12.666H10.676V13.589H12.127V14.333H10.676V15.958H9.758V11.916H12.229V12.666ZM10 7H9V2L14 7H10Z" fill="#7C7C7C"/>
</svg>
