<svg width="27" height="24" viewBox="0 0 27 24" fill="none" xmlns="http://www.w3.org/2000/svg">
<path d="M1.54699 24C1.46573 23.9997 1.38742 23.9694 1.32708 23.915C1.26674 23.8606 1.22861 23.7858 1.21999 23.705V23.704L-7.08003e-06 11.336L-0.00100708 11.305C-0.00100708 11.123 0.145993 10.976 0.327993 10.976H8.56099V24.001L1.54699 24ZM4.90699 20.735V20.736C4.90699 20.9933 4.9833 21.2448 5.12625 21.4588C5.26921 21.6727 5.47239 21.8395 5.71012 21.9379C5.94785 22.0364 6.20944 22.0622 6.46181 22.012C6.71417 21.9618 6.94599 21.8379 7.12794 21.6559C7.30989 21.474 7.4338 21.2422 7.48399 20.9898C7.53419 20.7374 7.50843 20.4758 7.40996 20.2381C7.31149 20.0004 7.14474 19.7972 6.93079 19.6542C6.71684 19.5113 6.46531 19.435 6.20799 19.435H6.20599C5.48699 19.435 4.90499 20.017 4.90399 20.736L4.90699 20.735ZM5.38699 12.735C5.38699 12.916 5.53399 13.063 5.71599 13.063H6.47999C6.56698 13.063 6.65041 13.0284 6.71192 12.9669C6.77344 12.9054 6.80799 12.822 6.80799 12.735C6.80799 12.648 6.77344 12.5646 6.71192 12.503C6.65041 12.4415 6.56698 12.407 6.47999 12.407H5.70999C5.62274 12.407 5.53905 12.4416 5.47735 12.5033C5.41566 12.565 5.38099 12.6487 5.38099 12.736V12.739L5.38699 12.735ZM1.77699 12.735C1.77699 12.916 1.92399 13.063 2.10499 13.063H4.60999C4.69698 13.063 4.78041 13.0284 4.84192 12.9669C4.90344 12.9054 4.93799 12.822 4.93799 12.735C4.93799 12.648 4.90344 12.5646 4.84192 12.503C4.78041 12.4415 4.69698 12.407 4.60999 12.407H2.09899C2.012 12.407 1.92857 12.4415 1.86706 12.503C1.80555 12.5646 1.77099 12.648 1.77099 12.735V12.738L1.77699 12.735ZM11.577 22.123C11.4008 22.0635 11.2343 21.9782 11.083 21.87L11.089 21.874L10.989 21.811C10.7561 21.6648 10.526 21.5142 10.299 21.359L10.198 21.288C10.066 21.193 10.004 21.151 9.93599 21.155C9.69599 21.16 9.45599 21.162 9.21599 21.165V12.01L9.20299 11.24C9.65399 10.953 10.07 10.68 10.195 10.576C10.365 10.234 10.533 9.94798 10.719 9.67398L10.702 9.70098C10.787 9.56798 10.872 9.43598 10.95 9.30498L12.674 6.41098C12.754 6.27498 12.841 6.13898 12.928 6.00298C13.073 5.78698 13.227 5.52898 13.368 5.26298L13.392 5.21398C13.471 5.05248 13.4986 4.87064 13.471 4.69298L13.472 4.69798L13.466 1.57798C13.529 1.12398 13.785 0.739977 14.146 0.505977L14.152 0.501977C14.4738 0.2121 14.8822 0.0363694 15.314 0.00197656H15.321L15.384 0.000976562C15.725 0.000976562 16.047 0.0819765 16.333 0.224977L16.321 0.218977C16.512 0.310977 16.675 0.408977 16.828 0.518977L16.818 0.511977L16.924 0.581977C17.165 0.708977 17.345 0.922977 17.425 1.18198L17.427 1.18898C17.614 1.88498 17.785 2.51798 17.944 3.15298L18.01 3.41198C18.111 3.75198 18.198 4.16298 18.254 4.58398L18.259 4.62598C18.088 6.19998 17.759 7.63598 17.283 9.00398L17.325 8.86598L25.018 8.85498H25.046C25.279 8.855 25.5094 8.9046 25.7218 9.00049C25.9343 9.09639 26.1238 9.23637 26.278 9.41115C26.4322 9.58593 26.5474 9.79151 26.616 10.0142C26.6846 10.237 26.7051 10.4717 26.676 10.703L26.677 10.695C26.6985 11.0443 26.6271 11.3932 26.4701 11.706C26.3131 12.0188 26.076 12.2845 25.783 12.476L25.775 12.481C26.0556 12.8913 26.1869 13.3855 26.147 13.881V13.874C26.182 14.2666 26.0906 14.6602 25.886 14.9972C25.6815 15.3341 25.3745 15.5969 25.01 15.747L24.998 15.751C25.2217 16.1498 25.3255 16.6046 25.297 17.061V17.055C25.3188 17.3968 25.2479 17.7382 25.092 18.0432C24.9361 18.3481 24.7008 18.6054 24.411 18.788L24.403 18.793C24.6072 19.2504 24.6846 19.7544 24.627 20.252L24.628 20.239V20.427C24.6137 20.6733 24.5498 20.9142 24.4402 21.1352C24.3306 21.3562 24.1775 21.5529 23.9901 21.7134C23.8027 21.8739 23.5849 21.9949 23.3497 22.0692C23.1144 22.1436 22.8666 22.1697 22.621 22.146L22.628 22.147H18.199L18.184 22.148L18.168 22.147H18.169H12.259C12.208 22.147 12.155 22.147 12.099 22.155C12.031 22.159 11.959 22.165 11.885 22.165H11.87C11.769 22.1651 11.6684 22.1516 11.571 22.125L11.579 22.127L11.577 22.123ZM5.56199 20.736C5.56206 20.6519 5.57869 20.5686 5.61094 20.4909C5.64319 20.4132 5.69042 20.3427 5.74994 20.2832C5.80947 20.2238 5.88011 20.1767 5.95785 20.1445C6.03558 20.1124 6.11888 20.0959 6.20299 20.096C6.2871 20.096 6.37038 20.1127 6.44806 20.1449C6.52575 20.1772 6.59632 20.2244 6.65575 20.2839C6.71518 20.3435 6.7623 20.4141 6.79443 20.4918C6.82656 20.5696 6.84306 20.6529 6.84299 20.737C6.84286 20.9068 6.77525 21.0697 6.65504 21.1897C6.53483 21.3098 6.37186 21.3771 6.20199 21.377C6.03212 21.3768 5.86926 21.3092 5.74924 21.189C5.62921 21.0688 5.56186 20.9058 5.56199 20.736Z" fill="#425CFF"/>
</svg>
