<svg width="16" height="20" viewBox="0 0 16 20" fill="none" xmlns="http://www.w3.org/2000/svg">
<path d="M3.99951 0H1.99951C1.46908 0 0.960371 0.210714 0.585299 0.585786C0.210226 0.960859 -0.000488281 1.46957 -0.000488281 2V18C-0.000488281 18.5304 0.210226 19.0391 0.585299 19.4142C0.960371 19.7893 1.46908 20 1.99951 20H3.99951C4.52994 20 5.03865 19.7893 5.41372 19.4142C5.7888 19.0391 5.99951 18.5304 5.99951 18V2C5.99951 1.46957 5.7888 0.960859 5.41372 0.585786C5.03865 0.210714 4.52994 0 3.99951 0ZM13.9995 0H11.9995C11.4691 0 10.9604 0.210714 10.5853 0.585786C10.2102 0.960859 9.99951 1.46957 9.99951 2V18C9.99951 18.5304 10.2102 19.0391 10.5853 19.4142C10.9604 19.7893 11.4691 20 11.9995 20H13.9995C14.5299 20 15.0387 19.7893 15.4137 19.4142C15.7888 19.0391 15.9995 18.5304 15.9995 18V2C15.9995 1.46957 15.7888 0.960859 15.4137 0.585786C15.0387 0.210714 14.5299 0 13.9995 0Z" fill="white"/>
</svg>
