<svg width="22" height="37" viewBox="0 0 22 37" fill="none" xmlns="http://www.w3.org/2000/svg">
<path d="M20.7767 17.4579L3.36105 0.864164C3.07047 0.58715 2.6844 0.432616 2.28293 0.432616C1.88146 0.432616 1.49539 0.58715 1.20481 0.864164L1.18605 0.882915C1.04469 1.01721 0.932133 1.17885 0.855215 1.35802C0.778297 1.53718 0.738632 1.73012 0.738632 1.9251C0.738632 2.12008 0.778297 2.31302 0.855215 2.49219C0.932133 2.67135 1.04469 2.833 1.18605 2.96729L17.5861 18.5923L1.18605 34.211C1.04469 34.3453 0.932131 34.507 0.855214 34.6861C0.778296 34.8653 0.738631 35.0582 0.738631 35.2532C0.738631 35.4482 0.778296 35.6411 0.855214 35.8203C0.932131 35.9995 1.04469 36.1611 1.18605 36.2954L1.2048 36.3142C1.49539 36.5912 1.88146 36.7457 2.28293 36.7457C2.6844 36.7457 3.07046 36.5912 3.36105 36.3142L20.7767 19.7204C20.9298 19.5745 21.0518 19.399 21.1351 19.2045C21.2184 19.0101 21.2614 18.8007 21.2614 18.5892C21.2614 18.3776 21.2184 18.1683 21.1351 17.9738C21.0518 17.7794 20.9298 17.6038 20.7767 17.4579Z" fill="#425CFF"/>
</svg>
