<svg width="20" height="20" viewBox="0 0 20 20" fill="none" xmlns="http://www.w3.org/2000/svg">
<path d="M10 0C4.477 0 0 4.477 0 10C0 15.523 4.477 20 10 20C15.523 20 20 15.523 20 10C20 4.477 15.523 0 10 0ZM9 6.75V13.25C9 13.4489 8.92098 13.6397 8.78033 13.7803C8.63968 13.921 8.44891 14 8.25 14C8.05109 14 7.86032 13.921 7.71967 13.7803C7.57902 13.6397 7.5 13.4489 7.5 13.25V6.75C7.5 6.55109 7.57902 6.36032 7.71967 6.21967C7.86032 6.07902 8.05109 6 8.25 6C8.44891 6 8.63968 6.07902 8.78033 6.21967C8.92098 6.36032 9 6.55109 9 6.75ZM15 6.75V13.25C15 13.4489 14.921 13.6397 14.7803 13.7803C14.6397 13.921 14.4489 14 14.25 14C14.0511 14 13.8603 13.921 13.7197 13.7803C13.579 13.6397 13.5 13.4489 13.5 13.25V6.75C13.5 6.55109 13.579 6.36032 13.7197 6.21967C13.8603 6.07902 14.0511 6 14.25 6C14.4489 6 14.6397 6.07902 14.7803 6.21967C14.921 6.36032 15 6.55109 15 6.75ZM12 8.25V11.75C12 11.9489 11.921 12.1397 11.7803 12.2803C11.6397 12.421 11.4489 12.5 11.25 12.5C11.0511 12.5 10.8603 12.421 10.7197 12.2803C10.579 12.1397 10.5 11.9489 10.5 11.75V8.25C10.5 8.05109 10.579 7.86032 10.7197 7.71967C10.8603 7.57902 11.0511 7.5 11.25 7.5C11.4489 7.5 11.6397 7.57902 11.7803 7.71967C11.921 7.86032 12 8.05109 12 8.25V8.25ZM6 8.75V11.25C6 11.4489 5.92098 11.6397 5.78033 11.7803C5.63968 11.921 5.44891 12 5.25 12C5.05109 12 4.86032 11.921 4.71967 11.7803C4.57902 11.6397 4.5 11.4489 4.5 11.25V8.75C4.5 8.55109 4.57902 8.36032 4.71967 8.21967C4.86032 8.07902 5.05109 8 5.25 8C5.44891 8 5.63968 8.07902 5.78033 8.21967C5.92098 8.36032 6 8.55109 6 8.75Z" fill="#7C7C7C"/>
</svg>
