<svg width="34" height="33" viewBox="0 0 34 33" fill="none" xmlns="http://www.w3.org/2000/svg">
<path d="M33.0001 14.7798C33.3717 14.5029 33.6474 14.1167 33.7885 13.6752C33.9296 13.2337 33.9289 12.7592 33.7867 12.3181C33.6444 11.877 33.3677 11.4915 32.9953 11.2156C32.6229 10.9398 32.1735 10.7873 31.7101 10.7798L22.7101 10.4398C22.6658 10.4367 22.6234 10.4209 22.5879 10.3943C22.5524 10.3677 22.5254 10.3314 22.5101 10.2898L19.4001 1.88978C19.2438 1.46242 18.96 1.0934 18.5871 0.832677C18.2142 0.571955 17.7701 0.432129 17.3151 0.432129C16.8601 0.432129 16.416 0.571955 16.0431 0.832677C15.6701 1.0934 15.3863 1.46242 15.2301 1.88978L12.1301 10.3198C12.1148 10.3614 12.0877 10.3977 12.0522 10.4243C12.0168 10.4509 11.9743 10.4667 11.9301 10.4698L2.93009 10.8098C2.46669 10.8173 2.01728 10.9698 1.64488 11.2456C1.27247 11.5215 0.995745 11.907 0.853495 12.3481C0.711245 12.7892 0.710607 13.2637 0.85167 13.7052C0.992733 14.1467 1.26842 14.5329 1.64009 14.8098L8.70009 20.3598C8.73542 20.3876 8.76183 20.4251 8.77605 20.4678C8.79026 20.5104 8.79167 20.5563 8.78008 20.5998L6.35009 29.2098C6.22416 29.6482 6.23636 30.1148 6.38502 30.5461C6.53368 30.9773 6.81159 31.3523 7.18093 31.6201C7.55028 31.8878 7.99313 32.0352 8.44924 32.0423C8.90535 32.0494 9.35258 31.9159 9.73008 31.6598L17.1901 26.6598C17.2268 26.6344 17.2704 26.6208 17.3151 26.6208C17.3597 26.6208 17.4033 26.6344 17.4401 26.6598L24.9001 31.6598C25.2725 31.9246 25.7181 32.0669 26.1751 32.0669C26.6321 32.0669 27.0777 31.9246 27.4501 31.6598C27.8195 31.3946 28.0977 31.0214 28.2463 30.5916C28.395 30.1618 28.4068 29.6965 28.2801 29.2598L25.8301 20.6198C25.8171 20.5764 25.8178 20.5301 25.8321 20.4871C25.8465 20.4442 25.8737 20.4067 25.9101 20.3798L33.0001 14.7798Z" fill="#7C7C7C"/>
</svg>
