<svg width="14" height="14" viewBox="0 0 14 14" fill="none" xmlns="http://www.w3.org/2000/svg">
<path d="M3 0C2.20435 0 1.44129 0.316071 0.87868 0.87868C0.316071 1.44129 0 2.20435 0 3V11C0 11.7956 0.316071 12.5587 0.87868 13.1213C1.44129 13.6839 2.20435 14 3 14H8V10.917C7.67031 10.9731 7.33642 11.0008 7.002 11C5.915 11 5.088 10.728 4.527 10.447C4.30246 10.3364 4.08827 10.2058 3.887 10.057C3.8118 10.0002 3.73938 9.93979 3.67 9.876L3.655 9.862L3.65 9.857L3.648 9.855L3.646 9.854C3.55185 9.76051 3.49869 9.63345 3.49822 9.50077C3.49775 9.36809 3.55001 9.24065 3.6435 9.1465C3.73699 9.05235 3.86405 8.99919 3.99673 8.99872C4.12941 8.99825 4.25685 9.05051 4.351 9.144L4.354 9.146L4.376 9.166C4.398 9.186 4.436 9.217 4.487 9.256C4.591 9.334 4.753 9.443 4.974 9.553C5.413 9.773 6.087 10 7.002 10C7.434 10 7.812 9.949 8.145 9.865C8.33006 9.32102 8.6808 8.84864 9.148 8.51416C9.6152 8.17968 10.1754 7.99988 10.75 8H14V3C14 2.20435 13.6839 1.44129 13.1213 0.87868C12.5587 0.316071 11.7956 0 11 0H3ZM4.5 6C4.23478 6 3.98043 5.89464 3.79289 5.70711C3.60536 5.51957 3.5 5.26522 3.5 5C3.5 4.73478 3.60536 4.48043 3.79289 4.29289C3.98043 4.10536 4.23478 4 4.5 4C4.76522 4 5.01957 4.10536 5.20711 4.29289C5.39464 4.48043 5.5 4.73478 5.5 5C5.5 5.26522 5.39464 5.51957 5.20711 5.70711C5.01957 5.89464 4.76522 6 4.5 6ZM10.5 5C10.5 5.26522 10.3946 5.51957 10.2071 5.70711C10.0196 5.89464 9.76522 6 9.5 6C9.23478 6 8.98043 5.89464 8.79289 5.70711C8.60536 5.51957 8.5 5.26522 8.5 5C8.5 4.73478 8.60536 4.48043 8.79289 4.29289C8.98043 4.10536 9.23478 4 9.5 4C9.76522 4 10.0196 4.10536 10.2071 4.29289C10.3946 4.48043 10.5 4.73478 10.5 5ZM9.793 13.414C9.569 13.639 9.296 13.804 9 13.901V10.75C9 9.784 9.784 9 10.75 9H13.901C13.8033 9.29896 13.6365 9.57066 13.414 9.793L9.793 13.414V13.414Z" fill="#7C7C7C"/>
</svg>
